# xmcd CD database file
#
# Track frame offsets:
#	150
#	14205
#	40682
#	63175
#	82233
#	103063
#	128367
#	151340
#	184243
#	211543
#	229023
#	262827
#
# Disc length: 3633 seconds
#
# Revision: 5
# Processed by: cddbd v1.4PL0 Copyright (c) Steve Scherf et al.
# Submitted via: CDex 1.40Release
#
DISCID=940e2f0c
DTITLE=Don Ross - Huron Street
DYEAR=2001
DGENRE=Acoustic
TTITLE0=Big Buck
TTITLE1=Thin Air
TTITLE2=Loaded. Leather. Moonroof
TTITLE3=This Dragon Won't Sleep
TTITLE4=King Street Suite
TTITLE5=Zarzuela
TTITLE6=In From The Cold
TTITLE7=WallOf Glass
TTITLE8=Midnight March
TTITLE9=Lucy Watusi
TTITLE10=Catherine
TTITLE11=Three Hands
EXTD=YEAR: 2001 ID3G: 99
EXTT0=
EXTT1=
EXTT2=
EXTT3=
EXTT4=
EXTT5=
EXTT6=
EXTT7=
EXTT8=
EXTT9=
EXTT10=
EXTT11=
PLAYORDER=
